ffmpeg started on 2016-11-26 at 22:39:29
Report written to "Output/NVENCh264/results/ffmpeg/crowd_run_2160p50ll14000k.log"
Command line:
Tools/ffmpeg/ffmpeg -benchmark -y -i Input/y4m/crowd_run_2160p50.y4m -c:v h264_nvenc -preset ll -b:v 14000k -an Output/NVENCh264/encoded/crowd_run_2160p50ll14000k.mkv
ffmpeg version N-82227-gdb23fde Copyright (c) 2000-2016 the FFmpeg developers
  built with gcc 5.4.0 (Ubuntu 5.4.0-6ubuntu1~16.04.2) 20160609
  configuration: --prefix=/home/jaroslav/ffmpeg_build --pkg-config-flags=--static --extra-cflags=-I/home/jaroslav/ffmpeg_build/include --extra-ldflags=-L/home/jaroslav/ffmpeg_build/lib --bindir=/home/jaroslav/bin --enable-gpl --enable-libass --enable-libfdk-aac --enable-libfreetype --enable-libmp3lame --enable-libopus --enable-libtheora --enable-libvorbis --enable-libvpx --enable-libx264 --enable-libx265 --enable-nvenc --enable-libmfx --enable-libxvid --enable-libgsm --enable-libopencore-amrnb --enable-version3 --enable-nonfree
  libavutil      55. 35.100 / 55. 35.100
  libavcodec     57. 66.101 / 57. 66.101
  libavformat    57. 57.100 / 57. 57.100
  libavdevice    57.  2.100 / 57.  2.100
  libavfilter     6. 66.100 /  6. 66.100
  libswscale      4.  3.100 /  4.  3.100
  libswresample   2.  4.100 /  2.  4.100
  libpostproc    54.  2.100 / 54.  2.100
Input #0, yuv4mpegpipe, from 'Input/y4m/crowd_run_2160p50.y4m':
  Duration: 00:00:10.00, start: 0.000000, bitrate: 4976642 kb/s
    Stream #0:0: Video: rawvideo (I420 / 0x30323449), yuv420p(progressive), 3840x2160, SAR 1:1 DAR 16:9, 50 fps, 50 tbr, 50 tbn, 50 tbc
[h264_nvenc @ 0x36191c0] The variable bitrate rate-control requires the 'qmin' and/or 'qmax' option set.
Output #0, matroska, to 'Output/NVENCh264/encoded/crowd_run_2160p50ll14000k.mkv':
  Metadata:
    encoder         : Lavf57.57.100
    Stream #0:0: Video: h264 (h264_nvenc) (Main) (H264 / 0x34363248), yuv420p, 3840x2160 [SAR 1:1 DAR 16:9], q=-1--1, 14000 kb/s, 50 fps, 1k tbn, 50 tbc
    Metadata:
      encoder         : Lavc57.66.101 h264_nvenc
    Side data:
      cpb: bitrate max/min/avg: 0/0/14000000 buffer size: 28000000 vbv_delay: -1
Stream mapping:
  Stream #0:0 -> #0:0 (rawvideo (native) -> h264 (h264_nvenc))
Press [q] to stop, [?] for help
frame=    7 fps=0.0 q=0.0 size=       0kB time=00:00:00.00 bitrate=N/A speed=   0x    frame=   17 fps= 15 q=0.0 size=       0kB time=00:00:00.00 bitrate=N/A speed=   0x    frame=   32 fps= 20 q=42.0 size=       1kB time=00:00:00.02 bitrate= 285.0kbits/s speed=0.0128x    frame=   50 fps= 23 q=41.0 size=       1kB time=00:00:00.38 bitrate=  15.7kbits/s speed=0.176x    frame=   68 fps= 25 q=41.0 size=       1kB time=00:00:00.74 bitrate=   8.1kbits/s speed=0.276x    frame=   86 fps= 27 q=41.0 size=       1kB time=00:00:01.10 bitrate=   5.4kbits/s speed=0.343x    frame=  104 fps= 28 q=40.0 size=       1kB time=00:00:01.46 bitrate=   4.1kbits/s speed=0.392x    frame=  113 fps= 17 q=41.0 size=       1kB time=00:00:01.64 bitrate=   3.6kbits/s speed=0.248x    frame=  114 fps= 11 q=41.0 size=       1kB time=00:00:01.66 bitrate=   3.6kbits/s speed=0.162x    frame=  115 fps= 10 q=41.0 size=       1kB time=00:00:01.68 bitrate=   3.6kbits/s speed=0.147x    frame=  133 fps= 11 q=41.0 size=       1kB time=00:00:02.04 bitrate=   2.9kbits/s speed=0.171x    frame=  151 fps= 12 q=40.0 size=       1kB time=00:00:02.40 bitrate=   2.5kbits/s speed=0.193x    frame=  165 fps= 12 q=40.0 size=       1kB time=00:00:02.68 bitrate=   2.2kbits/s speed=0.202x    frame=  182 fps= 13 q=41.0 size=    5130kB time=00:00:03.02 bitrate=13912.1kbits/s speed=0.219x    frame=  199 fps= 14 q=40.0 size=    5130kB time=00:00:03.36 bitrate=12504.8kbits/s speed=0.234x    frame=  216 fps= 15 q=41.0 size=    5130kB time=00:00:03.70 bitrate=11356.0kbits/s speed=0.249x    frame=  233 fps= 15 q=41.0 size=    5130kB time=00:00:04.04 bitrate=10400.5kbits/s speed=0.263x    frame=  251 fps= 16 q=41.0 size=    5130kB time=00:00:04.40 bitrate=9549.8kbits/s speed=0.277x    frame=  269 fps= 16 q=41.0 size=    5130kB time=00:00:04.76 bitrate=8827.7kbits/s speed=0.29x    frame=  286 fps= 17 q=42.0 size=    8543kB time=00:00:05.10 bitrate=13719.2kbits/s speed=0.302x    frame=  292 fps= 17 q=40.0 size=    8543kB time=00:00:05.22 bitrate=13403.8kbits/s speed= 0.3x    frame=  310 fps= 17 q=41.0 size=    8543kB time=00:00:05.58 bitrate=12539.2kbits/s speed=0.311x    frame=  328 fps= 18 q=41.0 size=    8543kB time=00:00:05.94 bitrate=11779.4kbits/s speed=0.322x    frame=  335 fps= 18 q=40.0 size=    8543kB time=00:00:06.08 bitrate=11508.2kbits/s speed=0.321x    frame=  352 fps= 18 q=41.0 size=    8543kB time=00:00:06.42 bitrate=10898.8kbits/s speed=0.33x    frame=  370 fps= 18 q=41.0 size=    8543kB time=00:00:06.78 bitrate=10320.2kbits/s speed=0.339x    frame=  388 fps= 19 q=41.0 size=    8543kB time=00:00:07.14 bitrate=9800.0kbits/s speed=0.348x    frame=  406 fps= 19 q=41.0 size=    8543kB time=00:00:07.50 bitrate=9329.6kbits/s speed=0.357x    frame=  424 fps= 20 q=41.0 size=    8543kB time=00:00:07.86 bitrate=8902.4kbits/s speed=0.365x    frame=  438 fps= 20 q=41.0 size=   13666kB time=00:00:08.14 bitrate=13751.6kbits/s speed=0.369x    frame=  456 fps= 20 q=40.0 size=   13666kB time=00:00:08.50 bitrate=13169.2kbits/s speed=0.377x    frame=  474 fps= 21 q=40.0 size=   13666kB time=00:00:08.86 bitrate=12634.2kbits/s speed=0.384x    frame=  492 fps= 21 q=41.0 size=   13666kB time=00:00:09.22 bitrate=12141.0kbits/s speed=0.391x    frame=  500 fps= 21 q=41.0 Lsize=   17090kB time=00:00:09.98 bitrate=14026.4kbits/s speed=0.418x    
video:17085kB audio:0kB subtitle:0kB other streams:0kB global headers:0kB muxing overhead: 0.027877%
bench: utime=1.152s
bench: maxrss=1413720kB
